PathFileType	4	(X/Y/Z)	pose_F01_0-96.trc
DataRate	CameraRate	NumFrames	NumMarkers	Units	OrigDataRate	OrigDataStartFrame	OrigNumFrames
30	30	9	21	m	30	68	96
Frame#	Time	CHip			RHip			RKnee			RAnkle			RBigToe			RSmallToe			RHeel			LHip			LKnee			LAnkle			LBigToe			LSmallToe			LHeel			Neck			Nose			RShoulder			RElbow			RWrist			LShoulder			LElbow			LWrist			
		X1	Y1	Z1	X2	Y2	Z2	X3	Y3	Z3	X4	Y4	Z4	X5	Y5	Z5	X6	Y6	Z6	X7	Y7	Z7	X8	Y8	Z8	X9	Y9	Z9	X10	Y10	Z10	X11	Y11	Z11	X12	Y12	Z12	X13	Y13	Z13	X14	Y14	Z14	X15	Y15	Z15	X16	Y16	Z16	X17	Y17	Z17	X18	Y18	Z18	X19	Y19	Z19	X20	Y20	Z20	X21	Y21	Z21	
68	2.2666666666666666	-0.20792072188980262	1.824865954900177	-0.49215186097566604	-0.22695834792892514	1.817923934835476	-0.4478648155263589																-0.18827521004907843	1.8277134694681414	-0.5274286381558175	-0.18743392488629482	1.689821393240046	-0.5038959346672802	-0.1942523698047293	1.5618322263183662	-0.48654531354579156				-0.2256961680731249	1.533253441165146	-0.5165996516486472	-0.18693975899877663	1.5488185770766554	-0.4758327407997051	-0.19730924903414654	1.983176168576302	-0.4831551375068611	-0.20779350557268447	2.0378815921381093	-0.5584695397482837	-0.23082000223764193	1.981057020120491	-0.4278998749036222	-0.2603907359736215	1.9201915672280145	-0.5162929515268044	-0.20349158081238025	1.9400507437613876	-0.5849540362752248	-0.16365889495389166	1.9850488081276745	-0.5339424915170162	-0.17905229509058235	1.928175495460153	-0.6127962791456848	-0.23145225655577106	1.9293043383013708	-0.5192868917778153
69	2.3	-0.2077398582696745	1.8294870083938888	-0.4929572228732433	-0.2278994985561767	1.8244725946947162	-0.45214555100367565																-0.18511717423736618	1.8311178697631867	-0.5270349888039525	-0.18753518480214146	1.6934557399547203	-0.504155848633366	-0.1921003128186749	1.5633925379399451	-0.48928410679943546				-0.22603386213434626	1.5322527535543964	-0.5160740921035809	-0.18693975899877663	1.5488185770766554	-0.4758327407997051	-0.19813451422452677	1.9823104944237413	-0.4860316624783495	-0.20782131219668523	2.0378142959019976	-0.5586371185266727	-0.23076968818273197	1.9810671513725935	-0.42801093809723095	-0.2592305480325456	1.9191310571553528	-0.5212523890022125	-0.2043598747683227	1.9385657292736267	-0.587793643016453	-0.16443509795414674	1.9842469238547906	-0.5367336128662972	-0.17905229509058235	1.928175495460153	-0.6127962791456848	-0.23145225655577106	1.9293043383013708	-0.5192868917778153
70	2.3333333333333335	-0.20895226880607906	1.8258599222568854	-0.49546858952397715	-0.22803618576373838	1.822161436644198	-0.45165211895042795																-0.18822566721646247	1.8301714871653043	-0.5278285029803549	-0.18756851090851975	1.6936578821021047	-0.5042060027057568	-0.19270300487333322	1.5626005579903826	-0.4863687753699451				-0.22602368534115888	1.5321106023108508	-0.5159667392672309	-0.18693975899877663	1.5488185770766554	-0.4758327407997051	-0.19818641103470303	1.9833483912809113	-0.486408586909092	-0.20783527994489176	2.0379292726296883	-0.5586136357794704	-0.22897706552555816	1.9823767375952124	-0.43058872893039457	-0.26136581365085515	1.9201727654755032	-0.5193945477334899	-0.20331574647948075	1.938313297102243	-0.5886965529977815	-0.16362116548721228	1.9850403704278305	-0.5340117079245871	-0.17905229509058235	1.928175495460153	-0.6127962791456848	-0.23145225655577106	1.9293043383013708	-0.5192868917778153
71	2.3666666666666667	-0.20919407191832343	1.8279003269179612	-0.49578828072014136	-0.2312321320282723	1.8245179985329205	-0.4531372647661198																-0.188321587796952	1.8312016196771352	-0.5279809219586479	-0.18820251139563782	1.698220957059209	-0.5038791066588255	-0.19330569692799154	1.5618085780408197	-0.48345344394045475				-0.2258880568350691	1.5312300057598984	-0.5163861640105085	-0.18693975899877663	1.5488185770766554	-0.4758327407997051	-0.19905375400235448	1.9824712213014473	-0.4891664024712684	-0.2078359628766081	2.0379061010460484	-0.5587569990498654	-0.2298533816577154	1.9836667736240357	-0.4336408822926348	-0.258533964551749	1.919610300640323	-0.5183742949912432	-0.20227161819063877	1.9380608649308593	-0.5895994629791099	-0.164409168647966	1.9842839994704997	-0.5368185331121974	-0.17905229509058235	1.928175495460153	-0.6127962791456848	-0.23145225655577106	1.9293043383013708	-0.5192868917778153
72	2.4	-0.20900489625193863	1.8263842304983977	-0.49569418674828253	-0.22811899648084524	1.8228940774938998	-0.45180530947500697																-0.18619305649632034	1.8294773836906875	-0.5301332240512331	-0.1873599964661603	1.6922975112157903	-0.50421224587981	-0.19335024548399324	1.5618302181006998	-0.4833993382445434				-0.22578794377608147	1.5309073019704447	-0.5163772066230421	-0.18693975899877663	1.5488185770766554	-0.4758327407997051	-0.19724233655248746	1.9835229836063282	-0.491786254593173	-0.20871347258040315	2.0379814924719906	-0.5616610364740753	-0.22997044201277458	1.9825155583215293	-0.433826185002532	-0.2583617036832657	1.9184383055092176	-0.5180578109804433	-0.20239736751171056	1.9348149086743522	-0.5897023565783733	-0.16253423168507383	1.9852372430975722	-0.5393401881815678	-0.17905229509058235	1.928175495460153	-0.6127962791456848	-0.23145225655577106	1.9293043383013708	-0.5192868917778153
73	2.433333333333333	-0.20875528332915427	1.8262425752325844	-0.4958419718906056	-0.22689259617391883	1.8231380009864007	-0.4486576204519361																-0.1877652468977797	1.8298532262472658	-0.5367795441418114	-0.1874323849729642	1.6926142541236182	-0.5042703179613194	-0.1933947940399949	1.5618518581605796	-0.4833452325486321				-0.22555328068638475	1.5300027158247818	-0.5163460628803004	-0.18693975899877663	1.5488185770766554	-0.4758327407997051	-0.19816151069123336	1.983548173995146	-0.4949847953929125	-0.20871620940296945	2.037936941712111	-0.5617740717830781	-0.22992924015994756	1.9825335450388042	-0.43373444267396666	-0.26228290625290246	1.916587225820786	-0.5135206833204364	-0.20444820957326973	1.935952799374292	-0.5874948199616638	-0.16420944084854874	1.9844534046669091	-0.545384299256771	-0.17905229509058235	1.928175495460153	-0.6127962791456848	-0.23145225655577106	1.9293043383013708	-0.5192868917778153
74	2.466666666666667	-0.20888945521399213	1.8215834886606996	-0.4950647291178012	-0.228029314285116	1.8157186757035109	-0.45074788209492256																-0.18729733581295738	1.825052628467185	-0.532700400327846	-0.1875236091928165	1.687846514418914	-0.503513836570992	-0.1934393425959966	1.5618734982204596	-0.48329112685272074				-0.22768068754405354	1.5298116133794342	-0.5140660882347564	-0.18693975899877663	1.5488185770766554	-0.4758327407997051	-0.19806909242667672	1.9825203693671365	-0.4946126552150361	-0.20873236806785755	2.038062409262984	-0.5618022251284296	-0.2307105628237734	1.982624155053118	-0.4365953382619935	-0.2632586573589305	1.91721509630534	-0.5165537536845333	-0.20361592472511864	1.9386489480749327	-0.5848842346265882	-0.1632879176678618	1.9843079737745624	-0.5423098744091438	-0.17905229509058235	1.928175495460153	-0.6127962791456848	-0.23145225655577106	1.9293043383013708	-0.5192868917778153
75	2.5	-0.20906736132873383	1.8261175981902642	-0.4958595932799778	-0.22819162686612524	1.8230770159756289	-0.45186090767689024																-0.18919909015587832	1.8284532595911294	-0.5398472685936591	-0.18781719575587125	1.6928693265749393	-0.5038456567054226	-0.19434172578203376	1.5617427931152352	-0.48640611717708976				-0.22797898730373364	1.5288289956730587	-0.5135487478987282	-0.18693975899877663	1.5488185770766554	-0.4758327407997051	-0.19816334478484332	1.9835779305735897	-0.49510783174850603	-0.20873166460745626	2.0380323230856248	-0.5618625867900144	-0.23078081037758919	1.983868845735917	-0.43702193855791155	-0.26328823615415514	1.9166444298761824	-0.5166231709023019	-0.201504269788857	1.937631336548892	-0.5868629929923211	-0.16424295034334216	1.9854547899117798	-0.5459284925718074	-0.17905229509058235	1.928175495460153	-0.6127962791456848	-0.23145225655577106	1.9293043383013708	-0.5192868917778153
76	2.533333333333333	-0.2089346761385897	1.8271046586333968	-0.49610799167114283	-0.22800572506597472	1.8242697820331184	-0.4520903304278798																-0.19197271871374486	1.8293262405606716	-0.541128110279008	-0.18839581987493412	1.6932006710645966	-0.5074370596072542	-0.19631807185439396	1.5616628509881922	-0.4842761406992292				-0.2277092903370364	1.5301754812047799	-0.5141106007830623	-0.18693975899877663	1.5488185770766554	-0.4758327407997051	-0.19811483035185545	1.9835622621162448	-0.49518573111444253	-0.20871344065490835	2.037964913793642	-0.5619365023445413	-0.22898940564285747	1.9827323179478276	-0.43918069981435814	-0.2632868316024567	1.9168294368879688	-0.5166578850658496	-0.2015479690883057	1.9370634670248477	-0.5867858672903944	-0.16229746068491296	1.9854751532311672	-0.5481193423088055	-0.17905229509058235	1.928175495460153	-0.6127962791456848	-0.23145225655577106	1.9293043383013708	-0.5192868917778153
